<svg xmlns="http://www.w3.org/2000/svg" width="80" height="50" viewBox="0 0 200 128.62351847407163" class="css-1j8o68f">
    <defs id="SvgjsDefs1041"></defs>
    <g id="SvgjsG1042" featurekey="symbolFeature-0" transform="matrix(0.16800795057155415,0,0,0.16800795057155415,86,1.4349795204135027)" fill="#ffc451">
        <g xmlns="http://www.w3.org/2000/svg">
            <ellipse transform="matrix(0.5345 -0.8452 0.8452 0.5345 16.452 74.8652)" cx="76.189" cy="22.497" rx="22.494" ry="22.496">
            </ellipse>
            <path d="M38.85,128.007c0.447-1.185,0.885-2.523,1.316-4.047c2.979-14.561,11.619-29.382,18.557-41.079   c3.421,3.951,8.02,7.724,14.014,10.707c7.282,3.636,16.523,6.141,28.159,6.907c0.18,0.012,0.358,0.018,0.535,0.018   c4.178,0,7.694-3.244,7.976-7.471c0.291-4.411-3.047-8.219-7.455-8.511c-9.931-0.656-17.006-2.732-22.066-5.259   c-2.055-1.039-3.788-2.146-5.275-3.288c-2.507,0.115-5.049,0.191-7.651,0.201h-0.004h-0.005   c-11.489-0.002-19.446-1.128-19.78-1.176c-5.455-0.784-9.259-5.863-8.475-11.318c0.702-4.892,4.953-8.579,9.89-8.579   c0.476,0,0.957,0.035,1.432,0.102l0.223,0.03l0.849,0.104c0.77,0.089,1.937,0.212,3.429,0.336c2.408,0.199,6.066,0.434,10.488,0.49   c-0.128-0.264-0.27-0.517-0.413-0.769c-0.843-2.093-2.545-3.763-4.698-4.54c-7.526-4.088-19.915-3.244-29.016,8.329   C17.815,76.011,12.115,87.932,7.252,109.761c-0.763,5.294-0.221,9.407,1.149,12.655c0.334,1.493,0.94,2.949,1.851,4.29   l-0.001,0.001c0,0,0.009,0.015,0.038,0.058h0.001c0.827,1.25,14.344,22.539,14.311,57.058c0,9.055-0.915,19.047-3.235,29.917   c-1.356,6.361,2.388,12.623,8.475,14.53l14.29-84.969C42.476,137.406,40.631,132.28,38.85,128.007z"></path><path d="M0,417.772l13.313,2.238l19.885-118.246h2.027h84.873l19.886,118.246l13.313-2.238l-52.898-314.555v-2.703h-47.5v0.156   v2.547L0,417.772z M59.398,103.151c1.804,0,3.266,1.461,3.266,3.266c0,1.803-1.462,3.266-3.266,3.266s-3.266-1.463-3.266-3.266   C56.133,104.612,57.595,103.151,59.398,103.151z M76.648,299.28c-1.804,0-3.266-1.463-3.266-3.266c0-1.803,1.462-3.266,3.266-3.266   c1.804,0,3.266,1.463,3.266,3.266C79.914,297.817,78.452,299.28,76.648,299.28z M37.159,290.264h-2.027l29.977-178.25h2.026h21.055   l29.976,178.25H37.159z M93.898,103.151c1.804,0,3.266,1.461,3.266,3.266c0,1.803-1.462,3.266-3.266,3.266   c-1.804,0-3.266-1.463-3.266-3.266C90.633,104.612,92.095,103.151,93.898,103.151z"></path><path d="M120.706,65.68h10.78v-5.744h-0.735c-0.34,0.291-0.693,0.568-1.079,0.817C126.85,62.554,123.854,64.192,120.706,65.68z">
            </path>
            <path d="M124.251,42.348c1.5,0,2.938,0.347,4.246,0.959l0.176-0.928h14.415v-1.914h3.351V38.55h19.152v-1.676h-19.152v-1.916   h-3.351v-1.914h-30.164v9.336h4.787v2.27c0.375-0.231,0.751-0.461,1.119-0.701C120.461,42.898,122.332,42.348,124.251,42.348z"></path><path d="M54.351,57.677c-1.521-0.125-2.711-0.251-3.503-0.342c-0.396-0.047-0.692-0.084-0.881-0.108   c-0.191-0.026-0.237-0.033-0.237-0.033c-4.373-0.628-8.429,2.408-9.056,6.781c-0.63,4.373,2.406,8.428,6.781,9.058l-0.002-0.002   c0.272,0.039,8.086,1.153,19.495,1.155c16.78-0.067,41.438-2.224,61.64-15.114c3.713-2.393,4.784-7.344,2.392-11.057   c-2.392-3.715-7.342-4.784-11.058-2.393C104.39,55.756,82.215,58.255,66.949,58.188C61.769,58.188,57.394,57.93,54.351,57.677z"></path>
        </g>
    </g>
    <g id="SvgjsG1043" featurekey="nameFeature-0" transform="matrix(1.3484358865915544,0,0,1.3484358865915544,-4.3689345358614995,74.14671302806632)" fill="#ffc451">
        <path d="M12.04 30.4 c-0.2 0 -0.36 -0.16 -0.36 -0.36 l0 -4.28 c0 -0.2 0.16 -0.36 0.36 -0.36 l9.16 0 c0.2 0 0.36 0.16 0.36 0.36 l0 6.28 c0 5.88 -3.16 8.36 -9.12 8.36 c-5.56 0 -9.2 -2.2 -9.2 -8.36 l0 -10.52 c0 -5.8 3.24 -8.28 9.2 -8.28 c5.6 0 9.12 2.16 9.12 8.28 l0 0.84 c0 0.2 -0.16 0.36 -0.36 0.36 l-4.6 0 c-0.2 0 -0.36 -0.16 -0.36 -0.36 l0 -0.52 c0 -2.44 -1.56 -3.24 -3.6 -3.24 l-0.48 0 c-1.32 0 -2.2 0.36 -2.8 1.16 c-0.56 0.76 -0.76 1.76 -0.76 3.08 l0 7.92 c0 3.48 1.88 4.24 3.56 4.24 l0.48 0 c2.44 0 3.6 -1.68 3.6 -4.24 l0 -0.36 l-4.2 0 z M5.68 31.759999999999998 c0 4.44 2.16 6.08 6.72 6.08 c4.8 0 6.76 -2 6.76 -6.92 l0 -3 c0 -0.12 -0.08 -0.28 -0.16 -0.28 l-5.56 0 c-0.36 0 -0.28 0.52 0 0.52 l5.24 0 l0 2.76 c0 4.28 -1.64 6.48 -6.28 6.48 c-3.84 0 -6.24 -1.36 -6.24 -5.64 l0 -9.64 c0 -4.12 1.88 -5.96 6.24 -5.96 c3.24 0 6.2 1.8 5.96 4.56 c0 0.32 0.44 0.4 0.52 0.04 c0 -3.52 -3.2 -5.04 -6.48 -5.04 c-4 0 -6.72 1.44 -6.72 6.4 l0 9.64 z M28.68 40 c-0.2 0 -0.32 -0.16 -0.32 -0.36 l0 -25.68 c0 -0.2 0.12 -0.36 0.32 -0.36 l13.6 0 c0.2 0 0.36 0.16 0.36 0.36 l0 4.28 c0 0.2 -0.16 0.36 -0.36 0.36 l-8.64 0 l0 5.44 l6.72 0 c0.2 0 0.32 0.16 0.32 0.36 l0 4.36 c0 0.2 -0.12 0.36 -0.32 0.36 l-6.72 0 l0 5.88 l8.64 0 c0.2 0 0.36 0.16 0.36 0.36 l0 4.28 c0 0.2 -0.16 0.36 -0.36 0.36 l-13.6 0 z M30.68 16.12 l0 21.28 c0 0.24 0.16 0.32 0.32 0.32 l9.2 0 c0.36 0 0.28 -0.48 0 -0.48 l-9 0 l0 -10.44 l7.36 0 c0.24 0 0.24 -0.56 0 -0.56 l-7.36 0 l0 -9.92 l9 0 c0.28 0 0.36 -0.52 0 -0.52 l-9.2 0 c-0.16 0 -0.32 0.12 -0.32 0.32 z M53.52 18.6 l-5.68 0 c-0.2 0 -0.36 -0.16 -0.36 -0.36 l0 -4.28 c0 -0.2 0.16 -0.36 0.36 -0.36 l16.68 0 c0.2 0 0.36 0.16 0.36 0.36 l0 4.28 c0 0.2 -0.16 0.36 -0.36 0.36 l-5.68 0 l0 21.04 c0 0.2 -0.16 0.36 -0.36 0.36 l-4.6 0 c-0.2 0 -0.36 -0.16 -0.36 -0.36 l0 -21.04 z M62.08 15.8 l-12.08 0 c-0.28 0 -0.28 0.52 0 0.52 l5.92 0 l0 21.2 c0 0.28 0.52 0.28 0.52 0 l0 -21.2 l5.64 0 c0.4 0 0.36 -0.52 0 -0.52 z M82.2 24 l0 -10.04 c0 -0.2 0.16 -0.36 0.36 -0.36 l4.56 0 c0.2 0 0.36 0.16 0.36 0.36 l0 25.68 c0 0.2 -0.16 0.36 -0.36 0.36 l-4.56 0 c-0.2 0 -0.36 -0.16 -0.36 -0.36 l0 -10.64 l-6.48 0 l0 10.64 c0 0.2 -0.16 0.36 -0.36 0.36 l-4.56 0 c-0.2 0 -0.32 -0.16 -0.32 -0.36 l0 -25.68 c0 -0.2 0.12 -0.36 0.32 -0.36 l4.56 0 c0.2 0 0.36 0.16 0.36 0.36 l0 10.04 l6.48 0 z M72.8 37.52 c0 0.32 0.52 0.28 0.52 0 l0 -10.72 l11.24 0 l0 10.72 c0 0.28 0.44 0.32 0.44 0 l0 -21.52 c0 -0.28 -0.44 -0.36 -0.44 0 l0 10.24 l-11.24 0 l0 -10.24 c0 -0.28 -0.52 -0.28 -0.52 0 l0 21.52 z M95.28 40 c-0.2 0 -0.32 -0.16 -0.32 -0.36 l0 -25.68 c0 -0.2 0.12 -0.36 0.32 -0.36 l13.6 0 c0.2 0 0.36 0.16 0.36 0.36 l0 4.28 c0 0.2 -0.16 0.36 -0.36 0.36 l-8.64 0 l0 5.44 l6.72 0 c0.2 0 0.32 0.16 0.32 0.36 l0 4.36 c0 0.2 -0.12 0.36 -0.32 0.36 l-6.72 0 l0 5.88 l8.64 0 c0.2 0 0.36 0.16 0.36 0.36 l0 4.28 c0 0.2 -0.16 0.36 -0.36 0.36 l-13.6 0 z M97.28 16.12 l0 21.28 c0 0.24 0.16 0.32 0.32 0.32 l9.2 0 c0.36 0 0.28 -0.48 0 -0.48 l-9 0 l0 -10.44 l7.36 0 c0.24 0 0.24 -0.56 0 -0.56 l-7.36 0 l0 -9.92 l9 0 c0.28 0 0.36 -0.52 0 -0.52 l-9.2 0 c-0.16 0 -0.32 0.12 -0.32 0.32 z M120.88000000000001 13.600000000000001 c0.2 0 0.36 0.16 0.36 0.36 l0 21 l8.64 0 c0.2 0 0.36 0.16 0.36 0.36 l0 4.32 c0 0.2 -0.16 0.36 -0.36 0.36 l-13.56 0 c-0.2 0 -0.32 -0.16 -0.32 -0.36 l0 -25.68 c0 -0.2 0.12 -0.36 0.32 -0.36 l4.56 0 z M118.4 16.04 l0 21.52 c0 0.08 0.08 0.2 0.24 0.2 l9.24 0 c0.32 0 0.32 -0.52 0 -0.52 l-9.04 0 l0 -21.2 c0 -0.28 -0.44 -0.32 -0.44 0 z M144.44 13.600000000000001 c4.44 0 7.12 2.52 7.12 7.2 l0 5.04 c0 4.28 -2.64 7.16 -7.12 7.16 l-3.36 0 l0 6.64 c0 0.2 -0.16 0.36 -0.36 0.36 l-4.6 0 c-0.16 0 -0.28 -0.16 -0.28 -0.36 l0 -25.68 c0 -0.2 0.12 -0.36 0.28 -0.36 l8.32 0 z M146.32000000000002 24.64 l0 -2.64 c0 -2.76 -1.28 -3.04 -4.08 -3.04 l-1.16 0 l0 8.8 l1.16 0 c2.2 0 4.08 -0.4 4.08 -3.12 z M149.16000000000003 25.560000000000002 l0 -5 c0 -4.4 -3.4 -4.76 -5.24 -4.76 l-5.4 0 c-0.08 0 -0.24 0.12 -0.24 0.24 l0 21.52 c0 0.28 0.48 0.28 0.48 0 l0 -6.8 l4.8 0 c3.52 0 5.6 -1.24 5.6 -5.2 z M138.76000000000002 16.32 l5.16 0 c4.44 0 4.72 2.92 4.72 4.24 l0 5 c0 4.08 -2.56 4.64 -5.08 4.64 l-4.8 0 l0 -13.88 z">
        </path>
    </g>
</svg>
